<?xml version="1.0" encoding="iso-8859-1"?>
<!-- Generator: Adobe Illustrator 19.0.0, SVG Export Plug-In . SVG Version: 6.00 Build 0)  -->
<svg version="1.1" id="Layer_1" xmlns="http://www.w3.org/2000/svg" xmlns:xlink="http://www.w3.org/1999/xlink" x="0px" y="0px"
	 viewBox="0 0 512.001 512.001" style="enable-background:new 0 0 512.001 512.001;" xml:space="preserve">
<g>
	<g>
		<path d="M511.596,371.051l-43.724-238.885c-2.121-11.59-12.221-20.008-24.001-20.008H68.13c-11.78,0-21.88,8.418-24.001,20.008
			L0.406,371.051c-2.746,14.989,8.794,28.791,24.001,28.791c15.266,0,151.314,0,168.997,0c11.78,0,21.88-8.418,24.001-20.008
			l9.602-52.46h57.989l9.602,52.46c2.121,11.59,12.221,20.008,24.001,20.008c18.355,0,153.363,0,168.997,0
			C502.835,399.842,514.335,386.008,511.596,371.051z M77.622,351.043H53.678L88.47,160.956h21.51L77.622,351.043z M338.938,351.042
			l-4.332-23.667h1.661c13.475,0,24.399-10.924,24.399-24.399s-10.924-24.399-24.399-24.399c-16.857,0-118.849,0-129.6,0
			c-11.78,0-21.88,8.418-24.001,20.008l-9.602,52.46h-45.942l32.359-190.088h193.041l32.358,190.086H338.938z M434.38,351.042v0.002
			l-32.358-190.088h21.51l34.792,190.086H434.38z" style="fill:#ffffff;"/>
	</g>
</g>
<g>
</g>
<g>
</g>
<g>
</g>
<g>
</g>
<g>
</g>
<g>
</g>
<g>
</g>
<g>
</g>
<g>
</g>
<g>
</g>
<g>
</g>
<g>
</g>
<g>
</g>
<g>
</g>
<g>
</g>
</svg>
