<?xml version="1.0" encoding="iso-8859-1"?>
<!-- Generator: Adobe Illustrator 19.0.0, SVG Export Plug-In . SVG Version: 6.00 Build 0)  -->
<svg version="1.1" id="Layer_1" xmlns="http://www.w3.org/2000/svg" xmlns:xlink="http://www.w3.org/1999/xlink" x="0px" y="0px"
	 viewBox="0 0 511.998 511.998" style="enable-background:new 0 0 511.998 511.998;" xml:space="preserve">
<g>
	<g>
		<path d="M255.999,0C114.84,0,0,114.84,0,255.999s114.84,255.999,255.999,255.999s255.999-114.84,255.999-255.999
			S397.16,0,255.999,0z M416.404,386.558l-24.539-10.925c-4.635-2.063-10.017-1.499-14.122,1.484l-44.174,32.095
			c-4.105,2.982-6.307,7.927-5.775,12.972l2.817,26.811c-47.836,18.556-101.299,18.59-149.221,0l2.817-26.811
			c0.53-5.045-1.67-9.991-5.775-12.972l-44.174-32.095c-4.105-2.982-9.487-3.547-14.122-1.484l-24.539,10.925
			c-31.693-38.865-49.079-88.751-46.201-141.879l26.371-5.605c4.962-1.055,8.985-4.677,10.552-9.502l16.874-51.931
			c1.567-4.825,0.442-10.12-2.953-13.89l-17.996-19.986c27.598-42.579,70.406-74.418,120.671-87.771l13.487,23.361
			c2.536,4.394,7.225,7.1,12.298,7.1h54.604c5.073,0,9.76-2.706,12.298-7.1l13.487-23.361
			c50.265,13.353,93.073,45.192,120.671,87.771l-17.996,19.986c-3.395,3.769-4.52,9.065-2.953,13.89l16.874,51.93
			c1.567,4.825,5.59,8.447,10.552,9.502l26.371,5.605C465.485,297.804,448.099,347.691,416.404,386.558z" style="fill:#ffffff;"/>
	</g>
</g>
<g>
	<g>
		<path d="M318.654,233.646l-54.308-39.456c-4.977-3.616-11.716-3.616-16.692,0l-54.308,39.456
			c-4.977,3.616-7.059,10.026-5.158,15.876l20.743,63.841c1.901,5.85,7.354,9.813,13.505,9.813h67.128
			c6.151,0,11.604-3.961,13.505-9.813l20.743-63.841C325.713,243.672,323.631,237.262,318.654,233.646z" style="fill:#ffffff;"/>
	</g>
</g>
<g>
</g>
<g>
</g>
<g>
</g>
<g>
</g>
<g>
</g>
<g>
</g>
<g>
</g>
<g>
</g>
<g>
</g>
<g>
</g>
<g>
</g>
<g>
</g>
<g>
</g>
<g>
</g>
<g>
</g>
</svg>
