<?xml version="1.0" encoding="iso-8859-1"?>
<!-- Generator: Adobe Illustrator 19.0.0, SVG Export Plug-In . SVG Version: 6.00 Build 0)  -->
<svg version="1.1" id="Layer_1" xmlns="http://www.w3.org/2000/svg" xmlns:xlink="http://www.w3.org/1999/xlink" x="0px" y="0px"
	 viewBox="0 0 512 512" style="enable-background:new 0 0 512 512;" xml:space="preserve">
<g>
	<g>
		<path d="M348.379,192.121v-91.164c0-22.691-17.731-41.307-40.063-42.75V20.619C308.316,9.232,299.085,0,287.698,0h-63.395
			c-11.387,0-20.619,9.232-20.619,20.619v37.589c-22.333,1.442-40.063,20.059-40.063,42.75v91.164
			c0,9.555,6.509,17.568,15.326,19.908v49.355c-8.818,2.339-15.326,10.353-15.326,19.908v210.088
			c0,11.387,9.232,20.619,20.619,20.619h143.522c11.387,0,20.619-9.232,20.619-20.619V281.292c0-9.555-6.509-17.568-15.326-19.908
			v-49.355C341.872,209.689,348.379,201.676,348.379,192.121z M244.921,41.237h22.159v16.869h-22.159V41.237z M204.856,100.957
			h0.001c0-0.889,0.723-1.614,1.612-1.614c15.331,0,88.874,0,99.058,0c0.889,0,1.612,0.723,1.612,1.614v70.546H204.856V100.957z
			 M291.816,212.741v47.933h-71.632v-47.933H291.816z M307.142,470.763H204.858V301.911h102.285V470.763z" style="fill:#ffffff;"/>
	</g>
</g>
<g>
	<g>
		<path d="M256,335.478c-11.387,0-20.619,9.232-20.619,20.619v60.481c0,11.388,9.232,20.619,20.619,20.619
			c11.387,0,20.619-9.232,20.619-20.619v-60.481C276.619,344.709,267.387,335.478,256,335.478z" style="fill:#ffffff;"/>
	</g>
</g>
<g>
</g>
<g>
</g>
<g>
</g>
<g>
</g>
<g>
</g>
<g>
</g>
<g>
</g>
<g>
</g>
<g>
</g>
<g>
</g>
<g>
</g>
<g>
</g>
<g>
</g>
<g>
</g>
<g>
</g>
</svg>
